<svg width="48" height="48" viewBox="0 0 48 48" fill="none" xmlns="http://www.w3.org/2000/svg">
<path d="M31.2792 16.3791V31.6191C31.2805 32.2989 31.1086 32.9678 30.7797 33.5627C30.4507 34.1576 29.9756 34.6589 29.3992 35.0191C28.8227 35.3794 28.1639 35.5869 27.4851 35.6218C26.8062 35.6568 26.1296 35.5182 25.5191 35.2191L16.3591 30.7791C15.6859 30.4493 15.119 29.9369 14.7229 29.3004C14.3269 28.6638 14.1176 27.9288 14.1191 27.1791V20.8191C14.1176 20.0695 14.3269 19.3344 14.7229 18.6979C15.119 18.0614 15.6859 17.549 16.3591 17.2191L25.5391 12.7791C26.1488 12.4846 26.8232 12.3497 27.4993 12.3869C28.1753 12.4242 28.8309 12.6324 29.4044 12.9922C29.978 13.3519 30.4509 13.8514 30.7788 14.4438C31.1067 15.0362 31.2789 15.7021 31.2792 16.3791Z" fill="#FF80D4" stroke="#DC1E9A" stroke-width="2.8" stroke-linecap="round" stroke-linejoin="round"/>
<path d="M39.5 32C41.1027 29.6399 41.9596 26.8528 41.9596 24C41.9596 21.1472 41.1027 18.3601 39.5 16" stroke="#DC1E9A" stroke-width="2.8" stroke-linecap="round" stroke-linejoin="round"/>
<path d="M5.88086 18.3203V29.6803" stroke="#DC1E9A" stroke-width="2.8" stroke-linecap="round" stroke-linejoin="round"/>
</svg>
