<svg width="48" height="48" viewBox="0 0 48 48" fill="none" xmlns="http://www.w3.org/2000/svg">
<path d="M20.2604 13.4805V23.7405C20.2604 24.8013 20.6818 25.8188 21.432 26.5689C22.1821 27.319 23.1996 27.7405 24.2604 27.7405H34.5204C34.518 29.6344 34.1389 31.509 33.4051 33.255C32.6713 35.0011 31.5976 36.5837 30.2463 37.9108C28.895 39.2379 27.2932 40.2829 25.5342 40.985C23.7752 41.6871 21.8941 42.0323 20.0004 42.0005C16.3224 41.89 12.8252 40.3795 10.2233 37.7776C7.62134 35.1757 6.11088 31.6785 6.00042 28.0005C5.96587 26.1061 6.3092 24.2237 7.01035 22.4635C7.7115 20.7033 8.75641 19.1005 10.084 17.7486C11.4116 16.3968 12.9954 15.3231 14.7426 14.5903C16.4899 13.8574 18.3657 13.4802 20.2604 13.4805Z" fill="#FF80D4" stroke="#DC1E9A" stroke-width="2.8" stroke-linecap="round" stroke-linejoin="round"/>
<path d="M27.7402 6C29.6129 6 31.4672 6.36885 33.1973 7.08548C34.9274 7.80211 36.4994 8.85249 37.8236 10.1767C39.1477 11.5008 40.1981 13.0728 40.9148 14.8029C41.6314 16.533 42.0002 18.3874 42.0002 20.26H31.7402C30.6794 20.26 29.662 19.8386 28.9118 19.0884C28.1617 18.3383 27.7402 17.3209 27.7402 16.26V6Z" fill="#FF80D4" stroke="#DC1E9A" stroke-width="2.8" stroke-linecap="round" stroke-linejoin="round"/>
</svg>
