<svg width="48" height="48" viewBox="0 0 48 48" fill="none" xmlns="http://www.w3.org/2000/svg">
<path d="M23.4599 13.9993H14.9799C14.4358 13.9668 13.8908 14.0458 13.3784 14.2315C12.8659 14.4173 12.3968 14.7058 11.9999 15.0793L9.79992 17.3593C9.52581 17.6292 9.33534 17.9724 9.25137 18.3478C9.16739 18.7232 9.19345 19.1149 9.32644 19.4759C9.45943 19.8368 9.69369 20.1518 10.0012 20.383C10.3086 20.6142 10.6762 20.7518 11.0599 20.7793L15.9999 21.1793" fill="#FF80D4"/>
<path d="M23.4599 13.9993H14.9799C14.4358 13.9668 13.8908 14.0458 13.3784 14.2315C12.8659 14.4173 12.3968 14.7058 11.9999 15.0793L9.79992 17.3593C9.52581 17.6292 9.33534 17.9724 9.25137 18.3478C9.16739 18.7232 9.19345 19.1149 9.32644 19.4759C9.45943 19.8368 9.69369 20.1518 10.0012 20.383C10.3086 20.6142 10.6762 20.7518 11.0599 20.7793L15.9999 21.1793" stroke="#DC1E9A" stroke-width="2.8" stroke-linecap="round" stroke-linejoin="round"/>
<path d="M34.0003 24.5801V33.0201C34.0328 33.5642 33.9538 34.1092 33.7681 34.6216C33.5824 35.1341 33.2939 35.6032 32.9203 36.0001L30.6403 38.2601C30.3717 38.5335 30.0302 38.7239 29.6564 38.8087C29.2826 38.8935 28.8924 38.8692 28.532 38.7385C28.1717 38.6079 27.8565 38.3765 27.624 38.0718C27.3914 37.7672 27.2513 37.4021 27.2203 37.0201L26.8203 32.0001" fill="#FF80D4"/>
<path d="M34.0003 24.5801V33.0201C34.0328 33.5642 33.9538 34.1092 33.7681 34.6216C33.5824 35.1341 33.2939 35.6032 32.9203 36.0001L30.6403 38.2601C30.3717 38.5335 30.0302 38.7239 29.6564 38.8087C29.2826 38.8935 28.8924 38.8692 28.532 38.7385C28.1717 38.6079 27.8565 38.3765 27.624 38.0718C27.3914 37.7672 27.2513 37.4021 27.2203 37.0201L26.8203 32.0001" stroke="#DC1E9A" stroke-width="2.8" stroke-linecap="round" stroke-linejoin="round"/>
<path d="M19.5992 33.1595C20.2625 33.8256 21.1392 34.2368 22.0755 34.3209C23.0118 34.405 23.9478 34.1567 24.7192 33.6195C26.7353 32.1714 28.6284 30.5593 30.3792 28.7995C39.9992 19.2795 38.7392 9.2595 38.7392 9.2595C38.7392 9.2595 28.7392 8.1195 19.1992 17.6195C17.4455 19.383 15.8338 21.2822 14.3792 23.2995C13.8445 24.0732 13.5996 25.0105 13.6874 25.9469C13.7752 26.8832 14.1901 27.7587 14.8592 28.4195L19.5992 33.1595Z" fill="#FF80D4" stroke="#DC1E9A" stroke-width="2.8" stroke-linecap="round" stroke-linejoin="round"/>
<circle cx="30.2203" cy="17.7809" r="1.4" fill="#DC1E9A"/>
</svg>
