<svg width="808" height="641" viewBox="0 0 808 641" fill="none" xmlns="http://www.w3.org/2000/svg">
<path d="M122.9 294.6C106.1 294.6 90 292.4 74.6 288C59.2 283.4 46.8 277.5 37.4 270.3L53.9 233.7C62.9 240.1 73.5 245.4 85.7 249.6C98.1 253.6 110.6 255.6 123.2 255.6C132.8 255.6 140.5 254.7 146.3 252.9C152.3 250.9 156.7 248.2 159.5 244.8C162.3 241.4 163.7 237.5 163.7 233.1C163.7 227.5 161.5 223.1 157.1 219.9C152.7 216.5 146.9 213.8 139.7 211.8C132.5 209.6 124.5 207.6 115.7 205.8C107.1 203.8 98.4 201.4 89.6 198.6C81 195.8 73.1 192.2 65.9 187.8C58.7 183.4 52.8 177.6 48.2 170.4C43.8 163.2 41.6 154 41.6 142.8C41.6 130.8 44.8 119.9 51.2 110.1C57.8 100.1 67.6 92.2 80.6 86.4C93.8 80.4 110.3 77.4 130.1 77.4C143.3 77.4 156.3 79 169.1 82.2C181.9 85.2 193.2 89.8 203 96L188 132.9C178.2 127.3 168.4 123.2 158.6 120.6C148.8 117.8 139.2 116.4 129.8 116.4C120.4 116.4 112.7 117.5 106.7 119.7C100.7 121.9 96.4 124.8 93.8 128.4C91.2 131.8 89.9 135.8 89.9 140.4C89.9 145.8 92.1 150.2 96.5 153.6C100.9 156.8 106.7 159.4 113.9 161.4C121.1 163.4 129 165.4 137.6 167.4C146.4 169.4 155.1 171.7 163.7 174.3C172.5 176.9 180.5 180.4 187.7 184.8C194.9 189.2 200.7 195 205.1 202.2C209.7 209.4 212 218.5 212 229.5C212 241.3 208.7 252.1 202.1 261.9C195.5 271.7 185.6 279.6 172.4 285.6C159.4 291.6 142.9 294.6 122.9 294.6Z" fill="#DC1E9A"/>
<path d="M241.3 291L334.9 81H382.9L476.8 291H425.8L349 105.6H368.2L291.1 291H241.3ZM288.1 246L301 209.1H409L422.2 246H288.1Z" fill="url(#paint0_linear_2031_5163)"/>
<path d="M260 249L294.5 283L291 291H241L260 249Z" fill="#DC1E9A"/>
<path d="M518.9 291V81H559.1L648.5 229.2H627.2L715.1 81H755L755.6 291H710L709.7 150.9H718.1L647.9 268.8H626L554.3 150.9H564.5V291H518.9Z" fill="#4700D8"/>
<path d="M50.6 565.5V404.1H97.4V565.5H50.6ZM74 381.6C65.4 381.6 58.4 379.1 53 374.1C47.6 369.1 44.9 362.9 44.9 355.5C44.9 348.1 47.6 341.9 53 336.9C58.4 331.9 65.4 329.4 74 329.4C82.6 329.4 89.6 331.8 95 336.6C100.4 341.2 103.1 347.2 103.1 354.6C103.1 362.4 100.4 368.9 95 374.1C89.8 379.1 82.8 381.6 74 381.6Z" fill="#4700D8"/>
<rect x="45" y="329.5" width="58" height="52" rx="25.5" fill="#DC1E9A"/>
<path d="M314.1 565V403.6H358.8V449.2L352.5 436C357.3 424.6 365 416 375.6 410.2C386.2 404.2 399.1 401.2 414.3 401.2V444.4C412.3 444.2 410.5 444.1 408.9 444.1C407.3 443.9 405.6 443.8 403.8 443.8C391 443.8 380.6 447.5 372.6 454.9C364.8 462.1 360.9 473.4 360.9 488.8V565H314.1Z" fill="#4700D8"/>
<path d="M715.6 565V533.5L712.6 526.6V470.2C712.6 460.2 709.5 452.4 703.3 446.8C697.3 441.2 688 438.4 675.4 438.4C666.8 438.4 658.3 439.8 649.9 442.6C641.7 445.2 634.7 448.8 628.9 453.4L612.1 420.7C620.9 414.5 631.5 409.7 643.9 406.3C656.3 402.9 668.9 401.2 681.7 401.2C706.3 401.2 725.4 407 739 418.6C752.6 430.2 759.4 448.3 759.4 472.9V565H715.6ZM666.4 567.4C653.8 567.4 643 565.3 634 561.1C625 556.7 618.1 550.8 613.3 543.4C608.5 536 606.1 527.7 606.1 518.5C606.1 508.9 608.4 500.5 613 493.3C617.8 486.1 625.3 480.5 635.5 476.5C645.7 472.3 659 470.2 675.4 470.2H718.3V497.5H680.5C669.5 497.5 661.9 499.3 657.7 502.9C653.7 506.5 651.7 511 651.7 516.4C651.7 522.4 654 527.2 658.6 530.8C663.4 534.2 669.9 535.9 678.1 535.9C685.9 535.9 692.9 534.1 699.1 530.5C705.3 526.7 709.8 521.2 712.6 514L719.8 535.6C716.4 546 710.2 553.9 701.2 559.3C692.2 564.7 680.6 567.4 666.4 567.4Z" fill="#4700D8"/>
<line x1="29" y1="46" x2="781" y2="46" stroke="url(#paint1_linear_2031_5163)" stroke-width="8"/>
<mask id="path-10-inside-1_2031_5163" fill="white">
<rect y="31" width="36" height="34" rx="2"/>
</mask>
<rect y="31" width="36" height="34" rx="2" stroke="#EA07A5" stroke-width="20" mask="url(#path-10-inside-1_2031_5163)"/>
<mask id="path-11-inside-2_2031_5163" fill="white">
<rect x="772" y="31" width="36" height="34" rx="2"/>
</mask>
<rect x="772" y="31" width="36" height="34" rx="2" stroke="#4414A4" stroke-width="20" mask="url(#path-11-inside-2_2031_5163)"/>
<line x1="29" y1="601.166" x2="781" y2="601.166" stroke="url(#paint2_linear_2031_5163)" stroke-width="8"/>
<mask id="path-13-inside-3_2031_5163" fill="white">
<rect y="588.909" width="36" height="29.0912" rx="2"/>
</mask>
<rect y="588.909" width="36" height="29.0912" rx="2" stroke="#EA07A5" stroke-width="20" mask="url(#path-13-inside-3_2031_5163)"/>
<mask id="path-14-inside-4_2031_5163" fill="white">
<rect x="772" y="588.909" width="36" height="29.0912" rx="2"/>
</mask>
<rect x="772" y="588.909" width="36" height="29.0912" rx="2" stroke="#4414A4" stroke-width="20" mask="url(#path-14-inside-4_2031_5163)"/>
<line x1="19" y1="55" x2="19" y2="593" stroke="#EB0C92" stroke-width="8"/>
<line x1="794" y1="57" x2="794" y2="595" stroke="#4414A4" stroke-width="8"/>
<defs>
<linearGradient id="paint0_linear_2031_5163" x1="264.5" y1="160.5" x2="496" y2="256.5" gradientUnits="userSpaceOnUse">
<stop offset="0.182692" stop-color="#850BDE"/>
<stop offset="0.40622" stop-color="#4801CB"/>
<stop offset="0.504808" stop-color="#5401D9"/>
<stop offset="1" stop-color="#5601DD"/>
</linearGradient>
<linearGradient id="paint1_linear_2031_5163" x1="29" y1="50.5" x2="781" y2="50.5" gradientUnits="userSpaceOnUse">
<stop stop-color="#E808A2"/>
<stop offset="0.5" stop-color="#9D02F1"/>
<stop offset="1" stop-color="#4014A1"/>
</linearGradient>
<linearGradient id="paint2_linear_2031_5163" x1="29" y1="605.666" x2="781" y2="605.666" gradientUnits="userSpaceOnUse">
<stop stop-color="#E808A2"/>
<stop offset="0.5" stop-color="#9D02F1"/>
<stop offset="1" stop-color="#4014A1"/>
</linearGradient>
</defs>
</svg>
